<?xml version="1.0" encoding="UTF-8" standalone="no"?>
<svg
   width="600"
   height="300"
   version="1.1"
   id="svg26"
   sodipodi:docname="i18n.svg"
   xml:space="preserve"
   inkscape:version="1.4.2 (f4327f4, 2025-05-13)"
   xmlns:inkscape="http://www.inkscape.org/namespaces/inkscape"
   xmlns:sodipodi="http://sodipodi.sourceforge.net/DTD/sodipodi-0.dtd"
   xmlns="http://www.w3.org/2000/svg"
   xmlns:svg="http://www.w3.org/2000/svg"><defs
     id="defs26" /><sodipodi:namedview
     id="namedview26"
     pagecolor="#ffffff"
     bordercolor="#999999"
     borderopacity="1"
     inkscape:showpageshadow="2"
     inkscape:pageopacity="0"
     inkscape:pagecheckerboard="0"
     inkscape:deskcolor="#d1d1d1"
     inkscape:zoom="1.8078363"
     inkscape:cx="268.2765"
     inkscape:cy="201.06909"
     inkscape:window-width="2400"
     inkscape:window-height="1255"
     inkscape:window-x="-9"
     inkscape:window-y="57"
     inkscape:window-maximized="1"
     inkscape:current-layer="svg26" /><path
     fill="#c566ff"
     d="M0 300V0h600v300z"
     style="mix-blend-mode:normal;stroke-linejoin:miter;stroke-miterlimit:10;stroke-dasharray:none;stroke-dashoffset:0;fill:#5b3cc4;fill-opacity:1"
     id="path1" /><g
     fill="#fff"
     fill-rule="evenodd"
     data-paper-data="{&quot;index&quot;:null}"
     style="mix-blend-mode:normal;stroke-linejoin:miter;stroke-miterlimit:10;stroke-dasharray:none;stroke-dashoffset:0"
     id="g3"><path
       fill-opacity=".733"
       d="M207.731-14.683c-7.803-25.58 120.255 30.398 145.132 49.937 24.877 19.541 15.297 42.405-2.71 33.539-18.008-8.864-27.219 4.095-7.648 19.177 29.252 22.543 9.21 37.108-16.197 26.802-42.162-17.105-121.826-75.618-116.666-87.203 5.16-11.583 77.301 32.14 76.037 12.424-1.263-19.714-71.05-32.073-77.948-54.676Zm131.683-.752c3.251-14.883 69.781 12.83 90.495 39.57 23.408 30.226-13.524 48.207-32.843 19.383-22.728-33.913-60.039-48.023-57.652-58.953Zm216.524.78c29.21 28.334 75.604 46.23 54.227 61.867-22.025 16.112-64.266-32.322-61.551-8.33 2.764 24.416 72.414 42.849 43.45 48.884-28.967 6.035-82.07-17.503-117.043-49.49-34.973-31.986-13.85-41.747 13.248-27.16 22.424 12.072 45.258 1.813 21.876-18.405-33.003-28.535-50.364-65.734-30.927-66.69 18.707-.92 45.272 28.815 76.72 59.324zM203.483 76.052c-5.746 28.097-39.416-11.361-52.694-18.71-20.963-11.6-32.224 2.2-8.806 17.15 11.998 7.66 7.618 21.233-13.396 16.11-14.489-3.532-38.946-11.23-67.861-25.908-37.004-18.782-40.428-45.422 3.4-27.99 13.25 5.272 34.787-2.952 14.431-12.71-42.1-20.185-75.99-29.606-73.85-42.078 2.156-12.545 52.392-6.905 105.825 7.6 53.156 14.43 96.502 69.164 92.95 86.536zM223.04 90.98c8.654 3.462 10.59 13.351 3.684 17.494-6.906 4.143-19.334 1.382-19.334-5.986 0-7.365 3.224-16.482 15.65-11.508zm349.704 31.422c8.353 19.337-27.118 17.669-44.137 23.217-16.925 5.52 20.744 10.359 20.32 28.215-.373 15.773-25.343 22.376-57.45 19.784-31.514-2.544-42.792-15.075-38.033-25.98 5.725-13.12 37.23 1.521 37.886-4.565 1.186-10.96-42.214-14.622-61.05-27.398-22.534-15.286-2.537-30.13 16.126-21.324 32.627 15.396 57.771 5.147 37.998-2.543-19.776-7.688-32.41-10.837-36.544-22.787-4.136-11.95 13.288-27.522 27.503-14.774 39.51 35.432 92.641 37.185 97.38 48.154zM400.77 89.172c3.699 5.524 13.387 15.11 9.102 18.813-4.286 3.702-18.878 4.173-27.622-5.95-6.744-7.806-6.547-13.433-.202-17.845 8.17-5.68 15.022-.54 18.722 4.983zm-18.332 55.83c16.524 3.95 34.602 17.092 39.641 30.747 9.46 25.625 24.27 36.814 40.754 41.467 25.334 7.15-2.907 32.88-38.327 15.17-7.804-3.902-22.572-14.457-25.686-22.148-5.157-12.744-13.955-6.428-7.963 3.54 17.104 28.45-22.982 21.239-26.182-19.513-1.711-21.78-23.497-21.754-32.6-32.878-8.425-10.301 12.743-25.379 50.363-16.385zm112.093 82.581c10.676-13.65 45.786 6.523 85.687-30.718 28.006-26.138 55.29 2.775 22.676 19.773-18.988 9.896-31.68 24.269-17.017 23.264 14.664-1.003 29.164-10.042 35.024 3.385 5.192 11.897-17.676 27.126-48.53 23.81-16.34-1.757-26.803 10.418-12.083 14.639 39.469 11.31-6.447 29.014-57.955 11.967-33.525-11.097-37.989-33.75-8.492-33.443 29.495.306 63.022-2.474 46.752-7.951-16.27-5.477-60.323-6.495-46.063-24.726zM346.589 271.78c-7.805-15.937-19.785-46.504-7.638-53.993 17.664-10.895 18.9 41.281 71.796 46.05 42.933 3.87 36.077 23.969 24.515 26.642-11.563 2.676-36.526-9.28-30.458 5.396 6.069 14.676-37.16 18.9-58.215-24.095zM30.808 77.208c22.106 3.797 103.599 44.931 90.312 66.077-13.286 21.145-43.213-15.605-49.332-6.744-14.089 20.4 64.15 29.675 67.055 49.005 2.903 19.33-63.538 6.948-93.95-15.974-30.411-22.92-49.711-47.542-23.814-49.426 25.894-1.883-9.56-21.109-18.664-27.137-14.682-9.72-6.872-21.862 28.392-15.801ZM260.33 113.43c27.242 23.056 56.698 18.092 56.29 33.813-.528 20.285-27.805 8.61-30.687 16.896-3.65 10.5 53.354 22.104 38.125 39.617-15.735 18.1-60.187-9.77-66.026.726-7.954 14.304 55.963 10.249 49.896 32.388-7.794 28.466-122.196-24.8-140.102-40.179-17.907-15.38-12.203-38.816 20.123-18.934 32.325 19.881 40.266-.297 18.487-11.31-29.502-14.921-56.53-38.805-51.14-49.485 11.211-22.21 78.98 45.488 101.215 32.455 7.36-4.314-4.96-8.5-9.752-12.871-20.706-18.884 2.314-32.645 13.57-23.116zM43.52 252.078c-26.448 2.582 58.703 28.39 54.833 43.228-3.87 14.838-74.727-8.368-95.057-25.162-32.028-26.453-15.035-37.607 0-38.906 30.547-2.64-28.803-41.096-51.381-52.71-22.579-11.612 17.418-16.343 55.695-2.151 24.327 9.023 87.732 42.582 94.575 78.58 3.198 16.832-32.217-5.459-58.665-2.879zm152.034-10.043c66.875 33.426 114.812 30.11 129.031 45.96 15.224 16.975-24.39 20.366-91.265 0-37.41-11.392-27.852 2.097-13.899 8.319 9.703 4.327 10.518 15.87-20.837 11.848-31.061-3.982-56.641-17.02-64.92-22.526-33.3-22.147-19.276-34.173 12.971-18.52 11.867 5.762 26.634-1.753 14.302-7.392-27.535-12.59-55.826-51.4-27.142-45.244 21.993 4.72 41.1 17.228 61.76 27.555z"
       data-paper-data="{&quot;index&quot;:null}"
       opacity=".1"
       id="path2" /><path
       fill-opacity=".541"
       d="M207.731-14.683c-7.803-25.58 120.255 30.398 145.132 49.937 24.877 19.541 15.297 42.405-2.71 33.539-18.008-8.864-27.219 4.095-7.648 19.177 29.252 22.543 9.21 37.108-16.197 26.802-42.162-17.105-121.826-75.618-116.666-87.203 5.16-11.583 77.301 32.14 76.037 12.424-1.263-19.714-71.05-32.073-77.948-54.676Zm131.683-.752c3.251-14.883 69.781 12.83 90.495 39.57 23.408 30.226-13.524 48.207-32.843 19.383-22.728-33.913-60.039-48.023-57.652-58.953Zm216.524.78c29.21 28.334 75.604 46.23 54.227 61.867-22.025 16.112-64.266-32.322-61.551-8.33 2.764 24.416 72.414 42.849 43.45 48.884-28.967 6.035-82.07-17.503-117.043-49.49-34.973-31.986-13.85-41.747 13.248-27.16 22.424 12.072 45.258 1.813 21.876-18.405-33.003-28.535-50.364-65.734-30.927-66.69 18.707-.92 45.272 28.815 76.72 59.324zM203.483 76.052c-5.746 28.097-39.416-11.361-52.694-18.71-20.963-11.6-32.224 2.2-8.806 17.15 11.998 7.66 7.618 21.233-13.396 16.11-14.489-3.532-38.946-11.23-67.861-25.908-37.004-18.782-40.428-45.422 3.4-27.99 13.25 5.272 34.787-2.952 14.431-12.71-42.1-20.185-75.99-29.606-73.85-42.078 2.156-12.545 52.392-6.905 105.825 7.6 53.156 14.43 96.502 69.164 92.95 86.536zM223.04 90.98c8.654 3.462 10.59 13.351 3.684 17.494-6.906 4.143-19.334 1.382-19.334-5.986 0-7.365 3.224-16.482 15.65-11.508zm349.704 31.422c8.353 19.337-27.118 17.669-44.137 23.217-16.925 5.52 20.744 10.359 20.32 28.215-.373 15.773-25.343 22.376-57.45 19.784-31.514-2.544-42.792-15.075-38.033-25.98 5.725-13.12 37.23 1.521 37.886-4.565 1.186-10.96-42.214-14.622-61.05-27.398-22.534-15.286-2.537-30.13 16.126-21.324 32.627 15.396 57.771 5.147 37.998-2.543-19.776-7.688-32.41-10.837-36.544-22.787-4.136-11.95 13.288-27.522 27.503-14.774 39.51 35.432 92.641 37.185 97.38 48.154zM400.77 89.172c3.699 5.524 13.387 15.11 9.102 18.813-4.286 3.702-18.878 4.173-27.622-5.95-6.744-7.806-6.547-13.433-.202-17.845 8.17-5.68 15.022-.54 18.722 4.983zm-18.332 55.83c16.524 3.95 34.602 17.092 39.641 30.747 9.46 25.625 24.27 36.814 40.754 41.467 25.334 7.15-2.907 32.88-38.327 15.17-7.804-3.902-22.572-14.457-25.686-22.148-5.157-12.744-13.955-6.428-7.963 3.54 17.104 28.45-22.982 21.239-26.182-19.513-1.711-21.78-23.497-21.754-32.6-32.878-8.425-10.301 12.743-25.379 50.363-16.385zm112.093 82.581c10.676-13.65 45.786 6.523 85.687-30.718 28.006-26.138 55.29 2.775 22.676 19.773-18.988 9.896-31.68 24.269-17.017 23.264 14.664-1.003 29.164-10.042 35.024 3.385 5.192 11.897-17.676 27.126-48.53 23.81-16.34-1.757-26.803 10.418-12.083 14.639 39.469 11.31-6.447 29.014-57.955 11.967-33.525-11.097-37.989-33.75-8.492-33.443 29.495.306 63.022-2.474 46.752-7.951-16.27-5.477-60.323-6.495-46.063-24.726zM346.589 271.78c-7.805-15.937-19.785-46.504-7.638-53.993 17.664-10.895 18.9 41.281 71.796 46.05 42.933 3.87 36.077 23.969 24.515 26.642-11.563 2.676-36.526-9.28-30.458 5.396 6.069 14.676-37.16 18.9-58.215-24.095zM30.808 77.208c22.106 3.797 103.599 44.931 90.312 66.077-13.286 21.145-43.213-15.605-49.332-6.744-14.089 20.4 64.15 29.675 67.055 49.005 2.903 19.33-63.538 6.948-93.95-15.974-30.411-22.92-49.711-47.542-23.814-49.426 25.894-1.883-9.56-21.109-18.664-27.137-14.682-9.72-6.872-21.862 28.392-15.801ZM260.33 113.43c27.242 23.056 56.698 18.092 56.29 33.813-.528 20.285-27.805 8.61-30.687 16.896-3.65 10.5 53.354 22.104 38.125 39.617-15.735 18.1-60.187-9.77-66.026.726-7.954 14.304 55.963 10.249 49.896 32.388-7.794 28.466-122.196-24.8-140.102-40.179-17.907-15.38-12.203-38.816 20.123-18.934 32.325 19.881 40.266-.297 18.487-11.31-29.502-14.921-56.53-38.805-51.14-49.485 11.211-22.21 78.98 45.488 101.215 32.455 7.36-4.314-4.96-8.5-9.752-12.871-20.706-18.884 2.314-32.645 13.57-23.116zM43.52 252.078c-26.448 2.582 58.703 28.39 54.833 43.228-3.87 14.838-74.727-8.368-95.057-25.162-32.028-26.453-15.035-37.607 0-38.906 30.547-2.64-28.803-41.096-51.381-52.71-22.579-11.612 17.418-16.343 55.695-2.151 24.327 9.023 87.732 42.582 94.575 78.58 3.198 16.832-32.217-5.459-58.665-2.879zm152.034-10.043c66.875 33.426 114.812 30.11 129.031 45.96 15.224 16.975-24.39 20.366-91.265 0-37.41-11.392-27.852 2.097-13.899 8.319 9.703 4.327 10.518 15.87-20.837 11.848-31.061-3.982-56.641-17.02-64.92-22.526-33.3-22.147-19.276-34.173 12.971-18.52 11.867 5.762 26.634-1.753 14.302-7.392-27.535-12.59-55.826-51.4-27.142-45.244 21.993 4.72 41.1 17.228 61.76 27.555z"
       data-paper-data="{&quot;index&quot;:null}"
       opacity=".1"
       id="path3" /></g><g
     style="overflow:hidden;fill:currentColor"
     id="g26"
     transform="matrix(0.18899917,0,0,0.1886743,207.65357,21.312183)"><path
       d="M 547.79733,638.208 443.392,535.04 l 1.23733,-1.28 A 720.17067,720.17067 0 0 0 597.12,265.38667 h 120.448 v -82.304 H 429.824 v -82.176 h -82.21867 v 82.21866 H 59.818667 v 82.26134 H 518.99733 a 648.23467,648.23467 0 0 1 -130.304,219.94666 643.24267,643.24267 0 0 1 -94.976,-137.728 h -82.176 A 722.048,722.048 0 0 0 333.99467,535.04 L 124.8,741.41867 l 58.368,58.368 205.52533,-205.52534 127.872,127.82934 31.232,-83.84 M 779.22133,429.824 h -82.21866 l -184.96,493.312 h 82.21866 l 46.03734,-123.30667 h 195.24266 l 46.464,123.30667 H 964.224 L 779.22133,429.824 m -107.69066,287.744 66.56,-178.00533 66.60266,178.00533 z"
       fill="#7986cb"
       id="path1-0"
       style="fill:#ffffff;fill-opacity:1;stroke:#000000;stroke-width:58.2514;stroke-linecap:round;stroke-linejoin:round;stroke-dasharray:none;stroke-opacity:0.13" /><path
       d="M 547.79733,638.208 443.392,535.04 l 1.23733,-1.28 A 720.17067,720.17067 0 0 0 597.12,265.38667 h 120.448 v -82.304 H 429.824 v -82.176 h -82.21867 v 82.21866 H 59.818667 v 82.26134 H 518.99733 a 648.23467,648.23467 0 0 1 -130.304,219.94666 643.24267,643.24267 0 0 1 -94.976,-137.728 h -82.176 A 722.048,722.048 0 0 0 333.99467,535.04 L 124.8,741.41867 l 58.368,58.368 205.52533,-205.52534 127.872,127.82934 31.232,-83.84 M 779.22133,429.824 h -82.21866 l -184.96,493.312 h 82.21866 l 46.03734,-123.30667 h 195.24266 l 46.464,123.30667 H 964.224 L 779.22133,429.824 m -107.69066,287.744 66.56,-178.00533 66.60266,178.00533 z"
       fill="#7986cb"
       id="path26"
       style="fill:#ffffff;fill-opacity:1" /></g><g
     id="g27"><path
       id="text88"
       style="font-size:12px;font-family:'Cascadia Mono';-inkscape-font-specification:'Cascadia Mono, @wght=600';font-variation-settings:'wght' 600;white-space:pre;inline-size:149.517;fill:#ffffff;stroke:#000000;stroke-width:3.77481;stroke-linecap:round;stroke-linejoin:round;stroke-opacity:0.13"
       d="M 170.74617 248.19572 C 170.46882 248.19572 170.23999 248.28579 170.0603 248.46548 C 169.88062 248.64517 169.79119 248.87359 169.79119 249.15093 C 169.79119 249.42828 169.88062 249.6567 170.0603 249.83639 C 170.23999 250.01607 170.46882 250.10615 170.74617 250.10615 C 171.02351 250.10615 171.25167 250.01607 171.43136 249.83639 C 171.61105 249.6567 171.70114 249.42828 171.70114 249.15093 C 171.70114 248.87359 171.61105 248.64517 171.43136 248.46548 C 171.25167 248.28579 171.02351 248.19572 170.74617 248.19572 z M 205.90237 248.19572 C 205.62503 248.19572 205.3962 248.28579 205.21651 248.46548 C 205.03682 248.64517 204.9474 248.87359 204.9474 249.15093 C 204.9474 249.42828 205.03682 249.6567 205.21651 249.83639 C 205.3962 250.01607 205.62503 250.10615 205.90237 250.10615 C 206.17972 250.10615 206.40788 250.01607 206.58757 249.83639 C 206.76725 249.6567 206.85735 249.42828 206.85735 249.15093 C 206.85735 248.87359 206.76725 248.64517 206.58757 248.46548 C 206.40788 248.28579 206.17972 248.19572 205.90237 248.19572 z M 234.02747 248.19572 C 233.75013 248.19572 233.5213 248.28579 233.34161 248.46548 C 233.16192 248.64517 233.0725 248.87359 233.0725 249.15093 C 233.0725 249.42828 233.16192 249.6567 233.34161 249.83639 C 233.5213 250.01607 233.75013 250.10615 234.02747 250.10615 C 234.30482 250.10615 234.53298 250.01607 234.71266 249.83639 C 234.89235 249.6567 234.98245 249.42828 234.98245 249.15093 C 234.98245 248.87359 234.89235 248.64517 234.71266 248.46548 C 234.53298 248.28579 234.30482 248.19572 234.02747 248.19572 z M 195.5198 248.42465 L 195.5198 249.70786 L 197.30693 249.70786 L 197.30693 254.72359 C 197.30693 255.63374 197.47286 256.2956 197.80489 256.70966 C 198.14083 257.12372 198.68724 257.33085 199.44506 257.33085 C 199.78881 257.33085 200.11133 257.31101 200.41211 257.27195 C 200.7168 257.23289 201.03146 257.17046 201.35568 257.08452 L 201.19126 255.67278 C 200.67563 255.82122 200.25009 255.89502 199.91416 255.89502 C 199.58603 255.89502 199.33787 255.85243 199.16991 255.76649 C 199.00584 255.68056 198.89429 255.54723 198.8357 255.36754 C 198.7771 255.18395 198.74778 254.94984 198.74778 254.66468 L 198.74778 248.42465 L 197.4123 248.42465 L 195.5198 248.42465 z M 111.55454 248.89322 L 111.55454 250.17041 L 113.44167 250.17041 L 113.44167 255.93049 L 111.55454 255.93049 L 111.55454 257.21371 L 116.73409 257.21371 L 116.73409 255.93049 L 114.83622 255.93049 L 114.83622 250.17041 L 116.73409 250.17041 L 116.73409 248.89322 L 111.55454 248.89322 z M 126.56032 249.1275 L 126.56032 251.00246 L 125.04297 251.00246 L 125.04297 252.28568 L 126.56032 252.28568 L 126.56032 254.22556 L 126.56032 254.72359 C 126.56032 255.63374 126.78702 256.2956 127.24015 256.70966 C 127.69327 257.12372 128.42987 257.33085 129.4494 257.33085 C 129.73065 257.33085 129.996 257.31881 130.246 257.29538 C 130.49991 257.27194 130.75806 257.23716 131.01978 257.19028 L 130.87885 255.86623 C 130.60931 255.90139 130.36902 255.93049 130.15809 255.95392 C 129.94715 255.97345 129.74977 255.98338 129.56618 255.98338 C 129.01149 255.98338 128.611 255.87346 128.36491 255.65471 C 128.12272 255.43596 128.00184 255.08691 128.00184 254.60644 L 128.00184 253.81523 L 128.00184 252.28568 L 130.78489 252.28568 L 130.78489 251.00246 L 128.00184 251.00246 L 128.00184 249.1275 L 126.56032 249.1275 z M 161.71653 249.1275 L 161.71653 251.00246 L 160.19917 251.00246 L 160.19917 252.28568 L 161.71653 252.28568 L 161.71653 254.22556 L 161.71653 254.72359 C 161.71653 255.63374 161.94323 256.2956 162.39635 256.70966 C 162.84948 257.12372 163.58608 257.33085 164.60561 257.33085 C 164.88686 257.33085 165.1522 257.31881 165.4022 257.29538 C 165.65611 257.27194 165.91426 257.23716 166.17598 257.19028 L 166.03505 255.86623 C 165.76552 255.90139 165.52523 255.93049 165.31429 255.95392 C 165.10335 255.97345 164.90597 255.98338 164.72238 255.98338 C 164.16769 255.98338 163.76788 255.87346 163.52178 255.65471 C 163.2796 255.43596 163.15805 255.08691 163.15805 254.60644 L 163.15805 253.81523 L 163.15805 252.28568 L 165.9411 252.28568 L 165.9411 251.00246 L 163.15805 251.00246 L 163.15805 249.1275 L 161.71653 249.1275 z M 224.99783 249.1275 L 224.99783 251.00246 L 223.48048 251.00246 L 223.48048 252.28568 L 224.99783 252.28568 L 224.99783 254.22556 L 224.99783 254.72359 C 224.99783 255.63374 225.22453 256.2956 225.67766 256.70966 C 226.13078 257.12372 226.86738 257.33085 227.88691 257.33085 C 228.16816 257.33085 228.43351 257.31881 228.68351 257.29538 C 228.93742 257.27194 229.19557 257.23716 229.45729 257.19028 L 229.31636 255.86623 C 229.04682 255.90139 228.80653 255.93049 228.5956 255.95392 C 228.38466 255.97345 228.18728 255.98338 228.00369 255.98338 C 227.449 255.98338 227.04851 255.87346 226.80242 255.65471 C 226.56023 255.43596 226.43935 255.08691 226.43935 254.60644 L 226.43935 253.81523 L 226.43935 252.28568 L 229.2224 252.28568 L 229.2224 251.00246 L 226.43935 251.00246 L 226.43935 249.1275 L 224.99783 249.1275 z M 121.70291 250.88532 C 121.21853 250.88532 120.85377 250.98888 120.60767 251.19591 C 120.36548 251.39904 120.22102 251.70973 120.17414 252.1277 L 120.01241 252.1277 L 119.88691 251.00246 L 118.58565 251.00246 L 118.58565 257.21371 L 120.03321 257.21371 L 120.03321 253.9558 C 120.03321 252.80736 120.46661 252.23279 121.3338 252.23279 C 121.6463 252.23279 121.88873 252.33491 122.0606 252.53804 C 122.23248 252.74116 122.3183 253.02989 122.3183 253.40489 L 122.3183 257.21371 L 123.76586 257.21371 L 123.76586 253.17061 C 123.76586 252.44404 123.58568 251.88152 123.2263 251.48308 C 122.86693 251.08464 122.35916 250.88532 121.70291 250.88532 z M 135.29132 250.88532 C 134.39289 250.88532 133.6956 251.16691 133.19951 251.72941 C 132.70732 252.29191 132.46063 253.08075 132.46063 254.09637 C 132.46063 255.13934 132.7517 255.94021 133.33373 256.4988 C 133.91576 257.05349 134.74032 257.33085 135.80673 257.33085 C 136.05282 257.33085 136.33603 257.32093 136.65634 257.3014 C 136.97665 257.28187 137.32782 257.23717 137.71064 257.16685 L 137.5583 255.83076 C 137.28486 255.88154 137.01592 255.92267 136.75029 255.95392 C 136.48857 255.98127 136.22042 255.99476 135.94699 255.99476 C 135.27902 255.99476 134.76338 255.82876 134.4001 255.49673 C 134.17655 255.29001 134.02236 255.02613 133.93637 254.70551 L 137.98042 254.70551 C 138.00386 254.45551 138.01532 254.18807 138.01532 253.90292 C 138.01532 252.92245 137.77716 252.17475 137.30059 251.65913 C 136.82794 251.1435 136.15851 250.88532 135.29132 250.88532 z M 143.73442 250.88532 C 142.71099 250.88532 142.16603 251.41663 142.09963 252.47913 L 141.90702 252.47913 L 141.71307 251.00246 L 141.63053 251.00246 L 139.39845 251.00246 L 139.39845 252.22744 L 140.50576 252.22744 L 140.50576 255.98873 L 139.16424 255.98873 L 139.16424 257.21371 L 143.42974 257.21371 L 143.42974 255.98873 L 141.94729 255.98873 L 141.94729 254.54151 C 141.94729 253.79542 142.0567 253.2194 142.27545 252.81315 C 142.4942 252.4069 142.82605 252.20401 143.27136 252.20401 C 143.57215 252.20401 143.78885 252.29197 143.92166 252.46775 C 144.05838 252.64353 144.12702 252.93226 144.12702 253.33461 L 145.5625 253.33461 C 145.5625 252.51429 145.41017 251.90138 145.10548 251.49513 C 144.80079 251.08888 144.3438 250.88532 143.73442 250.88532 z M 149.828 250.88532 C 149.34363 250.88532 148.97819 250.98888 148.7321 251.19591 C 148.48991 251.39904 148.34544 251.70973 148.29857 252.1277 L 148.13751 252.1277 L 148.01201 251.00246 L 146.71075 251.00246 L 146.71075 257.21371 L 148.15831 257.21371 L 148.15831 253.9558 C 148.15831 252.80736 148.59171 252.23279 149.4589 252.23279 C 149.7714 252.23279 150.01383 252.33491 150.1857 252.53804 C 150.35758 252.74116 150.4434 253.02989 150.4434 253.40489 L 150.4434 257.21371 L 151.89029 257.21371 L 151.89029 253.17061 C 151.89029 252.44404 151.71077 251.88152 151.3514 251.48308 C 150.99202 251.08464 150.48425 250.88532 149.828 250.88532 z M 177.42562 250.88532 C 176.54671 250.88532 175.86302 251.16691 175.37474 251.72941 C 174.89036 252.28801 174.64861 253.08108 174.64861 254.10842 C 174.64861 255.13186 174.89036 255.92426 175.37474 256.48676 C 175.86302 257.04926 176.54671 257.33085 177.42562 257.33085 C 178.30843 257.33085 178.99212 257.04926 179.4765 256.48676 C 179.96087 255.92426 180.2033 255.13186 180.2033 254.10842 C 180.2033 253.08108 179.96087 252.28801 179.4765 251.72941 C 178.99212 251.16691 178.30843 250.88532 177.42562 250.88532 z M 184.98421 250.88532 C 184.49983 250.88532 184.13507 250.98888 183.88898 251.19591 C 183.64679 251.39904 183.50165 251.70973 183.45477 252.1277 L 183.29371 252.1277 L 183.16822 251.00246 L 181.86695 251.00246 L 181.86695 257.21371 L 183.31451 257.21371 L 183.31451 253.9558 C 183.31451 252.80736 183.74792 252.23279 184.61511 252.23279 C 184.92761 252.23279 185.17003 252.33491 185.34191 252.53804 C 185.51378 252.74116 185.59961 253.02989 185.59961 253.40489 L 185.59961 257.21371 L 187.04717 257.21371 L 187.04717 253.17061 C 187.04717 252.44404 186.86698 251.88152 186.50761 251.48308 C 186.14823 251.08464 185.64046 250.88532 184.98421 250.88532 z M 240.70692 250.88532 C 239.82802 250.88532 239.14433 251.16691 238.65604 251.72941 C 238.17167 252.28801 237.92991 253.08108 237.92991 254.10842 C 237.92991 255.13186 238.17167 255.92426 238.65604 256.48676 C 239.14433 257.04926 239.82802 257.33085 240.70692 257.33085 C 241.58974 257.33085 242.27343 257.04926 242.7578 256.48676 C 243.24218 255.92426 243.4846 255.13186 243.4846 254.10842 C 243.4846 253.08108 243.24218 252.28801 242.7578 251.72941 C 242.27343 251.16691 241.58974 250.88532 240.70692 250.88532 z M 248.26551 250.88532 C 247.78114 250.88532 247.4157 250.98888 247.16961 251.19591 C 246.92742 251.39904 246.78295 251.70973 246.73608 252.1277 L 246.57502 252.1277 L 246.44952 251.00246 L 245.14826 251.00246 L 245.14826 257.21371 L 246.59582 257.21371 L 246.59582 253.9558 C 246.59582 252.80736 247.02922 252.23279 247.89641 252.23279 C 248.20891 252.23279 248.45134 252.33491 248.62321 252.53804 C 248.79509 252.74116 248.88091 253.02989 248.88091 253.40489 L 248.88091 257.21371 L 250.3278 257.21371 L 250.3278 253.17061 C 250.3278 252.44404 250.14828 251.88152 249.78891 251.48308 C 249.42953 251.08464 248.92176 250.88532 248.26551 250.88532 z M 154.19954 250.94422 L 154.0821 252.25087 L 155.62899 252.2917 C 156.19539 252.30733 156.62093 252.40097 156.90609 252.57284 C 157.19124 252.74081 157.33425 253.0068 157.33425 253.37009 L 157.33425 253.49526 C 157.23446 253.47356 157.13291 253.45557 157.02957 253.44037 C 156.76395 253.40131 156.45502 253.38146 156.10345 253.38146 C 155.21673 253.38146 154.53158 253.56307 154.04721 253.92635 C 153.56283 254.28963 153.3204 254.81102 153.3204 255.49071 C 153.3204 256.07664 153.49992 256.52992 153.8593 256.85023 C 154.22258 257.17055 154.73248 257.33085 155.38873 257.33085 C 155.78326 257.33085 156.12298 257.27199 156.40813 257.15481 C 156.69329 257.03371 156.91426 256.85423 157.07051 256.61595 C 157.20197 256.41715 157.28195 256.1788 157.31076 255.90104 L 157.44431 255.90104 L 157.52753 257.27195 L 159.66028 257.21371 L 159.66028 256.04161 L 158.72275 255.91309 L 158.72275 253.49861 C 158.72275 252.6783 158.45887 252.05546 157.93153 251.62968 C 157.40418 251.19999 156.59748 250.97725 155.51154 250.96163 L 154.19954 250.94422 z M 189.35575 250.94422 L 189.23831 252.25087 L 190.78519 252.2917 C 191.3516 252.30733 191.77714 252.40097 192.06229 252.57284 C 192.34745 252.74081 192.49046 253.0068 192.49046 253.37009 L 192.49046 253.49526 C 192.39067 253.47356 192.28911 253.45557 192.18578 253.44037 C 191.92015 253.40131 191.61122 253.38146 191.25966 253.38146 C 190.37294 253.38146 189.68779 253.56307 189.20341 253.92635 C 188.71904 254.28963 188.47661 254.81102 188.47661 255.49071 C 188.47661 256.07664 188.65613 256.52992 189.0155 256.85023 C 189.37878 257.17055 189.88869 257.33085 190.54494 257.33085 C 190.93947 257.33085 191.27918 257.27199 191.56434 257.15481 C 191.84949 257.03371 192.07046 256.85423 192.22671 256.61595 C 192.35818 256.41715 192.43815 256.1788 192.46697 255.90104 L 192.60052 255.90104 L 192.68373 257.27195 L 194.81649 257.21371 L 194.81649 256.04161 L 193.87896 255.91309 L 193.87896 253.49861 C 193.87896 252.6783 193.61508 252.05546 193.08773 251.62968 C 192.56039 251.19999 191.75369 250.97725 190.66775 250.96163 L 189.35575 250.94422 z M 217.48018 250.94422 L 217.36341 252.25087 L 218.91029 252.2917 C 219.4767 252.30733 219.90224 252.40097 220.18739 252.57284 C 220.47255 252.74081 220.61555 253.0068 220.61555 253.37009 L 220.61555 253.49526 C 220.51576 253.47356 220.41421 253.45557 220.31087 253.44037 C 220.04525 253.40131 219.73632 253.38146 219.38476 253.38146 C 218.49804 253.38146 217.81221 253.56307 217.32784 253.92635 C 216.84346 254.28963 216.60171 254.81102 216.60171 255.49071 C 216.60171 256.07664 216.78123 256.52992 217.1406 256.85023 C 217.50388 257.17055 218.01379 257.33085 218.67004 257.33085 C 219.06457 257.33085 219.40428 257.27199 219.68944 257.15481 C 219.97459 257.03371 220.19556 256.85423 220.35181 256.61595 C 220.48328 256.41715 220.56325 256.1788 220.59207 255.90104 L 220.72561 255.90104 L 220.80883 257.27195 L 222.94158 257.21371 L 222.94158 256.04161 L 222.00406 255.91309 L 222.00406 253.49861 C 222.00406 252.6783 221.74018 252.05546 221.21283 251.62968 C 220.68549 251.19999 219.87879 250.97725 218.79285 250.96163 L 217.48018 250.94422 z M 168.10942 251.00246 L 168.10942 252.2917 L 170.08379 252.2917 L 170.08379 255.92447 L 167.75776 255.92447 L 167.75776 257.21371 L 170.20124 257.21371 L 171.52531 257.21371 L 173.39433 257.21371 L 173.39433 255.92447 L 171.52531 255.92447 L 171.52531 251.35389 L 171.52531 251.00246 L 168.10942 251.00246 z M 203.26562 251.00246 L 203.26562 252.2917 L 205.24 252.2917 L 205.24 255.92447 L 202.91397 255.92447 L 202.91397 257.21371 L 205.35744 257.21371 L 206.68152 257.21371 L 208.55053 257.21371 L 208.55053 255.92447 L 206.68152 255.92447 L 206.68152 251.35389 L 206.68152 251.00246 L 203.26562 251.00246 z M 210.00413 251.00246 L 210.00413 252.23279 L 213.36902 252.23279 L 210.00413 255.98338 L 210.00413 257.21371 L 215.1367 257.21371 L 215.1367 255.98338 L 211.71208 255.98338 L 215.01926 252.23279 L 215.01926 251.00246 L 210.00413 251.00246 z M 231.39072 251.00246 L 231.39072 252.2917 L 233.3651 252.2917 L 233.3651 255.92447 L 231.03907 255.92447 L 231.03907 257.21371 L 233.48254 257.21371 L 234.80662 257.21371 L 236.67563 257.21371 L 236.67563 255.92447 L 234.80662 255.92447 L 234.80662 251.35389 L 234.80662 251.00246 L 231.39072 251.00246 z M 135.30273 252.19196 C 135.7207 252.19196 136.04682 252.31894 136.28119 252.57284 C 136.51557 252.82675 136.63285 253.18995 136.63285 253.66261 L 133.87463 253.66261 C 133.91867 253.25123 134.03915 252.92136 134.23636 252.67258 C 134.49026 252.35227 134.8457 252.19196 135.30273 252.19196 z M 177.42562 252.23279 C 177.82796 252.23279 178.13689 252.39522 178.35174 252.71944 C 178.57049 253.04366 178.6799 253.50686 178.6799 254.10842 C 178.6799 254.70608 178.57049 255.16861 178.35174 255.49673 C 178.13689 255.82095 177.82796 255.98338 177.42562 255.98338 C 177.02718 255.98338 176.71892 255.82095 176.50017 255.49673 C 176.28142 255.16861 176.17201 254.70608 176.17201 254.10842 C 176.17201 253.50686 176.28142 253.04366 176.50017 252.71944 C 176.71892 252.39522 177.02718 252.23279 177.42562 252.23279 z M 240.70692 252.23279 C 241.10927 252.23279 241.4182 252.39522 241.63304 252.71944 C 241.85179 253.04366 241.96121 253.50686 241.96121 254.10842 C 241.96121 254.70608 241.85179 255.16861 241.63304 255.49673 C 241.4182 255.82095 241.10927 255.98338 240.70692 255.98338 C 240.30849 255.98338 240.00023 255.82095 239.78148 255.49673 C 239.56273 255.16861 239.45331 254.70608 239.45331 254.10842 C 239.45331 253.50686 239.56273 253.04366 239.78148 252.71944 C 240.00023 252.39522 240.30849 252.23279 240.70692 252.23279 z M 156.13835 254.58302 C 156.37663 254.58302 156.60546 254.5887 156.82421 254.60042 C 156.98468 254.60615 157.15487 254.6256 157.33425 254.65866 L 157.33425 254.74099 L 157.33425 254.81128 C 157.33425 255.02612 157.27348 255.23537 157.15238 255.43849 C 157.03129 255.63771 156.84964 255.80371 156.60745 255.93652 C 156.36526 256.06543 156.0642 256.1293 155.70482 256.1293 C 155.39623 256.1293 155.1602 256.06687 154.99614 255.94187 C 154.83598 255.81687 154.75589 255.63527 154.75589 255.39699 C 154.75589 254.85402 155.21648 254.58302 156.13835 254.58302 z M 191.29523 254.58302 C 191.53351 254.58302 191.76167 254.5887 191.98042 254.60042 C 192.14088 254.60615 192.31107 254.6256 192.49046 254.65866 L 192.49046 254.74099 L 192.49046 254.81128 C 192.49046 255.02612 192.42968 255.23537 192.30859 255.43849 C 192.18749 255.63771 192.00584 255.80371 191.76365 255.93652 C 191.52147 256.06543 191.2204 256.1293 190.86103 256.1293 C 190.55243 256.1293 190.31641 256.06687 190.15235 255.94187 C 189.99219 255.81687 189.91209 255.63527 189.91209 255.39699 C 189.91209 254.85402 190.37335 254.58302 191.29523 254.58302 z M 219.41966 254.58302 C 219.65794 254.58302 219.88677 254.5887 220.10552 254.60042 C 220.26598 254.60615 220.43617 254.6256 220.61555 254.65866 L 220.61555 254.74099 L 220.61555 254.81128 C 220.61555 255.02612 220.55478 255.23537 220.43369 255.43849 C 220.31259 255.63771 220.13094 255.80371 219.88875 255.93652 C 219.64657 256.06543 219.3455 256.1293 218.98612 256.1293 C 218.67753 256.1293 218.44151 256.06687 218.27744 255.94187 C 218.11729 255.81687 218.03719 255.63527 218.03719 255.39699 C 218.03719 254.85402 218.49778 254.58302 219.41966 254.58302 z "
       transform="matrix(2.910337,0,0,2.9177769,-226.87225,-513.82035)" /><path
       id="text68"
       style="font-size:12px;font-family:'Cascadia Mono';-inkscape-font-specification:'Cascadia Mono, @wght=600';font-variation-settings:'wght' 600;white-space:pre;inline-size:149.517;fill:#ffffff;stroke:#000000;stroke-width:0;stroke-linecap:round;stroke-linejoin:round;stroke-opacity:0.13"
       d="M 170.74607 248.19577 C 170.46872 248.19577 170.24056 248.28585 170.06087 248.46554 C 169.88119 248.64523 169.79109 248.87365 169.79109 249.15099 C 169.79109 249.42834 169.88119 249.65676 170.06087 249.83645 C 170.24056 250.01613 170.46872 250.10621 170.74607 250.10621 C 171.02341 250.10621 171.25224 250.01613 171.43193 249.83645 C 171.61162 249.65676 171.70104 249.42834 171.70104 249.15099 C 171.70104 248.87365 171.61162 248.64523 171.43193 248.46554 C 171.25224 248.28585 171.02341 248.19577 170.74607 248.19577 z M 205.90227 248.19577 C 205.62493 248.19577 205.39677 248.28585 205.21708 248.46554 C 205.03739 248.64523 204.9473 248.87365 204.9473 249.15099 C 204.9473 249.42834 205.03739 249.65676 205.21708 249.83645 C 205.39677 250.01613 205.62493 250.10621 205.90227 250.10621 C 206.17962 250.10621 206.40845 250.01613 206.58814 249.83645 C 206.76782 249.65676 206.85725 249.42834 206.85725 249.15099 C 206.85725 248.87365 206.76782 248.64523 206.58814 248.46554 C 206.40845 248.28585 206.17962 248.19577 205.90227 248.19577 z M 234.02737 248.19577 C 233.75003 248.19577 233.5212 248.28585 233.34151 248.46554 C 233.16182 248.64523 233.0724 248.87365 233.0724 249.15099 C 233.0724 249.42834 233.16182 249.65676 233.34151 249.83645 C 233.5212 250.01613 233.75003 250.10621 234.02737 250.10621 C 234.30471 250.10621 234.53288 250.01613 234.71256 249.83645 C 234.89225 249.65676 234.98235 249.42834 234.98235 249.15099 C 234.98235 248.87365 234.89225 248.64523 234.71256 248.46554 C 234.53288 248.28585 234.30471 248.19577 234.02737 248.19577 z M 195.5197 248.42471 L 195.5197 249.70792 L 197.30683 249.70792 L 197.30683 254.72365 C 197.30683 255.6338 197.47276 256.29566 197.80479 256.70972 C 198.14073 257.12378 198.68781 257.33091 199.44563 257.33091 C 199.78938 257.33091 200.11123 257.31107 200.41201 257.27201 C 200.7167 257.23295 201.03136 257.17052 201.35557 257.08458 L 201.19116 255.67284 C 200.67553 255.82128 200.24999 255.89508 199.91405 255.89508 C 199.58593 255.89508 199.33777 255.85249 199.1698 255.76655 C 199.00574 255.68062 198.89486 255.54729 198.83627 255.3676 C 198.77767 255.184 198.74835 254.9499 198.74835 254.66474 L 198.74835 248.42471 L 197.4122 248.42471 L 195.5197 248.42471 z M 111.55444 248.89328 L 111.55444 250.17047 L 113.44157 250.17047 L 113.44157 255.93055 L 111.55444 255.93055 L 111.55444 257.21377 L 116.73466 257.21377 L 116.73466 255.93055 L 114.83612 255.93055 L 114.83612 250.17047 L 116.73466 250.17047 L 116.73466 248.89328 L 111.55444 248.89328 z M 126.56022 249.12756 L 126.56022 251.00252 L 125.04286 251.00252 L 125.04286 252.28574 L 126.56022 252.28574 L 126.56022 254.22495 L 126.56022 254.72365 C 126.56022 255.6338 126.78692 256.29566 127.24004 256.70972 C 127.69317 257.12378 128.42977 257.33091 129.4493 257.33091 C 129.73055 257.33091 129.9959 257.31887 130.2459 257.29544 C 130.4998 257.272 130.75796 257.23722 131.01967 257.19034 L 130.87874 255.86562 C 130.60921 255.90078 130.36892 255.93054 130.15798 255.95398 C 129.94705 255.97351 129.74967 255.98277 129.56607 255.98277 C 129.01139 255.98277 128.61157 255.87352 128.36548 255.65477 C 128.12329 255.43602 128.00174 255.0863 128.00174 254.60583 L 128.00174 253.81529 L 128.00174 252.28574 L 130.78546 252.28574 L 130.78546 251.00252 L 128.00174 251.00252 L 128.00174 249.12756 L 126.56022 249.12756 z M 161.7171 249.12756 L 161.7171 251.00252 L 160.19907 251.00252 L 160.19907 252.28574 L 161.7171 252.28574 L 161.7171 254.22495 L 161.7171 254.72365 C 161.7171 255.6338 161.94312 256.29566 162.39625 256.70972 C 162.84937 257.12378 163.58598 257.33091 164.60551 257.33091 C 164.88676 257.33091 165.1521 257.31887 165.4021 257.29544 C 165.65601 257.272 165.91416 257.23722 166.17588 257.19034 L 166.03495 255.86562 C 165.76542 255.90078 165.52513 255.93054 165.31419 255.95398 C 165.10325 255.97351 164.90654 255.98277 164.72295 255.98277 C 164.16826 255.98277 163.76778 255.87352 163.52168 255.65477 C 163.2795 255.43602 163.15795 255.0863 163.15795 254.60583 L 163.15795 253.81529 L 163.15795 252.28574 L 165.94167 252.28574 L 165.94167 251.00252 L 163.15795 251.00252 L 163.15795 249.12756 L 161.7171 249.12756 z M 224.99773 249.12756 L 224.99773 251.00252 L 223.48038 251.00252 L 223.48038 252.28574 L 224.99773 252.28574 L 224.99773 254.22495 L 224.99773 254.72365 C 224.99773 255.6338 225.22443 256.29566 225.67755 256.70972 C 226.13068 257.12378 226.86728 257.33091 227.88681 257.33091 C 228.16806 257.33091 228.43341 257.31887 228.68341 257.29544 C 228.93731 257.272 229.19547 257.23722 229.45719 257.19034 L 229.31625 255.86562 C 229.04672 255.90078 228.80643 255.93054 228.59549 255.95398 C 228.38456 255.97351 228.18718 255.98277 228.00358 255.98277 C 227.4489 255.98277 227.04908 255.87352 226.80299 255.65477 C 226.5608 255.43602 226.43925 255.0863 226.43925 254.60583 L 226.43925 253.81529 L 226.43925 252.28574 L 229.22297 252.28574 L 229.22297 251.00252 L 226.43925 251.00252 L 226.43925 249.12756 L 224.99773 249.12756 z M 121.7028 250.88538 C 121.21843 250.88538 120.85366 250.98894 120.60757 251.19597 C 120.36538 251.3991 120.22091 251.70979 120.17404 252.12776 L 120.0123 252.12776 L 119.88681 251.00252 L 118.58622 251.00252 L 118.58622 257.21377 L 120.03311 257.21377 L 120.03311 253.95586 C 120.03311 252.80742 120.46651 252.23285 121.3337 252.23285 C 121.6462 252.23285 121.88862 252.33497 122.0605 252.5381 C 122.23237 252.74122 122.3182 253.02995 122.3182 253.40495 L 122.3182 257.21377 L 123.76576 257.21377 L 123.76576 253.17067 C 123.76576 252.4441 123.58625 251.88158 123.22687 251.48314 C 122.8675 251.0847 122.35905 250.88538 121.7028 250.88538 z M 135.29122 250.88538 C 134.39278 250.88538 133.6955 251.16697 133.19941 251.72947 C 132.70722 252.29197 132.4612 253.08081 132.4612 254.09643 C 132.4612 255.1394 132.75226 255.94027 133.3343 256.49886 C 133.91633 257.05355 134.74022 257.33091 135.80663 257.33091 C 136.05272 257.33091 136.33593 257.32099 136.65624 257.30146 C 136.97655 257.28193 137.32839 257.23723 137.71121 257.16691 L 137.55887 255.83082 C 137.28543 255.8816 137.01582 255.92273 136.75019 255.95398 C 136.48847 255.98133 136.22099 255.99482 135.94756 255.99482 C 135.27959 255.99482 134.76395 255.82882 134.40067 255.49679 C 134.17712 255.29007 134.02226 255.02619 133.93627 254.70557 L 137.98032 254.70557 C 138.00375 254.45557 138.01588 254.18813 138.01588 253.90298 C 138.01588 252.92251 137.77706 252.17481 137.30049 251.65919 C 136.82784 251.14356 136.15841 250.88538 135.29122 250.88538 z M 143.73432 250.88538 C 142.71088 250.88538 142.16593 251.41669 142.09952 252.47919 L 141.90692 252.47919 L 141.71297 251.00252 L 141.6311 251.00252 L 139.39835 251.00252 L 139.39835 252.2275 L 140.50566 252.2275 L 140.50566 255.98879 L 139.16414 255.98879 L 139.16414 257.21377 L 143.42964 257.21377 L 143.42964 255.98879 L 141.94718 255.98879 L 141.94718 254.54157 C 141.94718 253.79548 142.0566 253.21946 142.27535 252.81321 C 142.4941 252.40696 142.82595 252.20407 143.27126 252.20407 C 143.57204 252.20407 143.78875 252.29136 143.92156 252.46714 C 144.05828 252.64292 144.12691 252.93232 144.12691 253.33467 L 145.5624 253.33467 C 145.5624 252.51435 145.41006 251.90077 145.10538 251.49452 C 144.80069 251.08827 144.3437 250.88538 143.73432 250.88538 z M 149.8279 250.88538 C 149.34353 250.88538 148.97876 250.98894 148.73267 251.19597 C 148.49048 251.3991 148.34601 251.70979 148.29914 252.12776 L 148.1374 252.12776 L 148.01191 251.00252 L 146.71065 251.00252 L 146.71065 257.21377 L 148.15821 257.21377 L 148.15821 253.95586 C 148.15821 252.80742 148.59161 252.23285 149.4588 252.23285 C 149.7713 252.23285 150.01372 252.33497 150.1856 252.5381 C 150.35747 252.74122 150.4433 253.02995 150.4433 253.40495 L 150.4433 257.21377 L 151.89086 257.21377 L 151.89086 253.17067 C 151.89086 252.4441 151.71067 251.88158 151.3513 251.48314 C 150.99192 251.0847 150.48415 250.88538 149.8279 250.88538 z M 177.42552 250.88538 C 176.54661 250.88538 175.86359 251.16697 175.37531 251.72947 C 174.89093 252.28807 174.64851 253.08047 174.64851 254.10781 C 174.64851 255.13125 174.89093 255.92432 175.37531 256.48682 C 175.86359 257.04932 176.54661 257.33091 177.42552 257.33091 C 178.30833 257.33091 178.99202 257.04932 179.4764 256.48682 C 179.96077 255.92432 180.2032 255.13125 180.2032 254.10781 C 180.2032 253.08047 179.96077 252.28807 179.4764 251.72947 C 178.99202 251.16697 178.30833 250.88538 177.42552 250.88538 z M 184.98411 250.88538 C 184.49973 250.88538 184.13497 250.98894 183.88887 251.19597 C 183.64669 251.3991 183.50222 251.70979 183.45534 252.12776 L 183.29361 252.12776 L 183.16811 251.00252 L 181.86685 251.00252 L 181.86685 257.21377 L 183.31441 257.21377 L 183.31441 253.95586 C 183.31441 252.80742 183.74782 252.23285 184.615 252.23285 C 184.9275 252.23285 185.16993 252.33497 185.3418 252.5381 C 185.51368 252.74122 185.59951 253.02995 185.59951 253.40495 L 185.59951 257.21377 L 187.04707 257.21377 L 187.04707 253.17067 C 187.04707 252.4441 186.86688 251.88158 186.5075 251.48314 C 186.14813 251.0847 185.64036 250.88538 184.98411 250.88538 z M 240.70682 250.88538 C 239.82792 250.88538 239.14422 251.16697 238.65594 251.72947 C 238.17157 252.28807 237.92981 253.08047 237.92981 254.10781 C 237.92981 255.13125 238.17157 255.92432 238.65594 256.48682 C 239.14422 257.04932 239.82792 257.33091 240.70682 257.33091 C 241.58963 257.33091 242.27333 257.04932 242.7577 256.48682 C 243.24208 255.92432 243.4845 255.13125 243.4845 254.10781 C 243.4845 253.08047 243.24208 252.28807 242.7577 251.72947 C 242.27333 251.16697 241.58963 250.88538 240.70682 250.88538 z M 248.26541 250.88538 C 247.78104 250.88538 247.41627 250.98894 247.17018 251.19597 C 246.92799 251.3991 246.78352 251.70979 246.73665 252.12776 L 246.57491 252.12776 L 246.44942 251.00252 L 245.14816 251.00252 L 245.14816 257.21377 L 246.59572 257.21377 L 246.59572 253.95586 C 246.59572 252.80742 247.02912 252.23285 247.89631 252.23285 C 248.20881 252.23285 248.45123 252.33497 248.62311 252.5381 C 248.79498 252.74122 248.88081 253.02995 248.88081 253.40495 L 248.88081 257.21377 L 250.32837 257.21377 L 250.32837 253.17067 C 250.32837 252.4441 250.14818 251.88158 249.78881 251.48314 C 249.42943 251.0847 248.92166 250.88538 248.26541 250.88538 z M 154.19944 250.94428 L 154.082 252.25093 L 155.62888 252.29176 C 156.19529 252.30739 156.62083 252.40103 156.90599 252.5729 C 157.19114 252.74087 157.33415 253.00686 157.33415 253.37014 L 157.33415 253.49532 C 157.23436 253.47362 157.1328 253.45563 157.02947 253.44043 C 156.76384 253.40137 156.45491 253.38152 156.10335 253.38152 C 155.21663 253.38152 154.53148 253.56312 154.0471 253.92641 C 153.56273 254.28969 153.3203 254.81108 153.3203 255.49077 C 153.3203 256.0767 153.49982 256.52998 153.8592 256.85029 C 154.22248 257.17061 154.73238 257.33091 155.38863 257.33091 C 155.78316 257.33091 156.12287 257.27205 156.40803 257.15486 C 156.69319 257.03377 156.91416 256.85429 157.07041 256.61601 C 157.20187 256.41721 157.28184 256.17886 157.31066 255.9011 L 157.44421 255.9011 L 157.52742 257.27201 L 159.66018 257.21377 L 159.66018 256.04167 L 158.72265 255.91248 L 158.72265 253.49867 C 158.72265 252.67835 158.45877 252.05552 157.93143 251.62974 C 157.40408 251.20005 156.59738 250.97731 155.51144 250.96169 L 154.19944 250.94428 z M 189.35565 250.94428 L 189.23821 252.25093 L 190.78509 252.29176 C 191.3515 252.30739 191.77704 252.40103 192.06219 252.5729 C 192.34735 252.74087 192.49035 253.00686 192.49035 253.37014 L 192.49035 253.49532 C 192.39056 253.47362 192.28901 253.45563 192.18567 253.44043 C 191.92005 253.40137 191.61112 253.38152 191.25956 253.38152 C 190.37284 253.38152 189.68768 253.56312 189.20331 253.92641 C 188.71893 254.28969 188.47651 254.81108 188.47651 255.49077 C 188.47651 256.0767 188.65603 256.52998 189.0154 256.85029 C 189.37868 257.17061 189.88859 257.33091 190.54484 257.33091 C 190.93937 257.33091 191.27908 257.27205 191.56424 257.15486 C 191.84939 257.03377 192.07036 256.85429 192.22661 256.61601 C 192.35808 256.41721 192.43805 256.17886 192.46687 255.9011 L 192.60041 255.9011 L 192.68363 257.27201 L 194.81638 257.21377 L 194.81638 256.04167 L 193.87886 255.91248 L 193.87886 253.49867 C 193.87886 252.67835 193.61498 252.05552 193.08763 251.62974 C 192.56029 251.20005 191.75359 250.97731 190.66765 250.96169 L 189.35565 250.94428 z M 217.48075 250.94428 L 217.36331 252.25093 L 218.91019 252.29176 C 219.4766 252.30739 219.90213 252.40103 220.18729 252.5729 C 220.47245 252.74087 220.61545 253.00686 220.61545 253.37014 L 220.61545 253.49532 C 220.51566 253.47362 220.41411 253.45563 220.31077 253.44043 C 220.04515 253.40137 219.73622 253.38152 219.38466 253.38152 C 218.49794 253.38152 217.81278 253.56312 217.32841 253.92641 C 216.84403 254.28969 216.60161 254.81108 216.60161 255.49077 C 216.60161 256.0767 216.78113 256.52998 217.1405 256.85029 C 217.50378 257.17061 218.01369 257.33091 218.66994 257.33091 C 219.06447 257.33091 219.40418 257.27205 219.68934 257.15486 C 219.97449 257.03377 220.19546 256.85429 220.35171 256.61601 C 220.48318 256.41721 220.56315 256.17886 220.59196 255.9011 L 220.72551 255.9011 L 220.80873 257.27201 L 222.94148 257.21377 L 222.94148 256.04167 L 222.00396 255.91248 L 222.00396 253.49867 C 222.00396 252.67835 221.74007 252.05552 221.21273 251.62974 C 220.68539 251.20005 219.87868 250.97731 218.79275 250.96169 L 217.48075 250.94428 z M 168.10932 251.00252 L 168.10932 252.29176 L 170.08369 252.29176 L 170.08369 255.92453 L 167.75766 255.92453 L 167.75766 257.21377 L 170.20113 257.21377 L 171.52521 257.21377 L 173.39422 257.21377 L 173.39422 255.92453 L 171.52521 255.92453 L 171.52521 251.35395 L 171.52521 251.00252 L 168.10932 251.00252 z M 203.26552 251.00252 L 203.26552 252.29176 L 205.24057 252.29176 L 205.24057 255.92453 L 202.91387 255.92453 L 202.91387 257.21377 L 205.35734 257.21377 L 206.68142 257.21377 L 208.5511 257.21377 L 208.5511 255.92453 L 206.68142 255.92453 L 206.68142 251.35395 L 206.68142 251.00252 L 203.26552 251.00252 z M 210.00403 251.00252 L 210.00403 252.23285 L 213.36825 252.23285 L 210.00403 255.98277 L 210.00403 257.21377 L 215.1366 257.21377 L 215.1366 255.98277 L 211.71265 255.98277 L 215.01983 252.23285 L 215.01983 251.00252 L 210.00403 251.00252 z M 231.39062 251.00252 L 231.39062 252.29176 L 233.365 252.29176 L 233.365 255.92453 L 231.03897 255.92453 L 231.03897 257.21377 L 233.48244 257.21377 L 234.80652 257.21377 L 236.67553 257.21377 L 236.67553 255.92453 L 234.80652 255.92453 L 234.80652 251.35395 L 234.80652 251.00252 L 231.39062 251.00252 z M 135.30263 252.19202 C 135.7206 252.19202 136.04672 252.319 136.28109 252.5729 C 136.51547 252.82681 136.63275 253.19001 136.63275 253.66267 L 133.87453 253.66267 C 133.91857 253.25129 134.03905 252.92142 134.23625 252.67264 C 134.49016 252.35233 134.8456 252.19202 135.30263 252.19202 z M 177.42552 252.23285 C 177.82786 252.23285 178.13679 252.39528 178.35163 252.7195 C 178.57038 253.04372 178.6798 253.50625 178.6798 254.10781 C 178.6798 254.70547 178.57038 255.16867 178.35163 255.49679 C 178.13679 255.82101 177.82786 255.98277 177.42552 255.98277 C 177.02708 255.98277 176.71882 255.82101 176.50007 255.49679 C 176.28132 255.16867 176.1719 254.70547 176.1719 254.10781 C 176.1719 253.50625 176.28132 253.04372 176.50007 252.7195 C 176.71882 252.39528 177.02708 252.23285 177.42552 252.23285 z M 240.70682 252.23285 C 241.10917 252.23285 241.4181 252.39528 241.63294 252.7195 C 241.85169 253.04372 241.96111 253.50625 241.96111 254.10781 C 241.96111 254.70547 241.85169 255.16867 241.63294 255.49679 C 241.4181 255.82101 241.10917 255.98277 240.70682 255.98277 C 240.30838 255.98277 240.00013 255.82101 239.78138 255.49679 C 239.56263 255.16867 239.45321 254.70547 239.45321 254.10781 C 239.45321 253.50625 239.56263 253.04372 239.78138 252.7195 C 240.00013 252.39528 240.30838 252.23285 240.70682 252.23285 z M 156.13892 254.58241 C 156.3772 254.58241 156.60536 254.58876 156.82411 254.60048 C 156.98458 254.60621 157.15477 254.62566 157.33415 254.65872 L 157.33415 254.74105 L 157.33415 254.81134 C 157.33415 255.02618 157.27337 255.23476 157.15228 255.43788 C 157.03119 255.6371 156.84953 255.8031 156.60735 255.93591 C 156.36516 256.06482 156.06476 256.12936 155.70539 256.12936 C 155.3968 256.12936 155.1601 256.06693 154.99604 255.94193 C 154.83588 255.81693 154.75578 255.63533 154.75578 255.39705 C 154.75578 254.85408 155.21705 254.58241 156.13892 254.58241 z M 191.29513 254.58241 C 191.53341 254.58241 191.76157 254.58876 191.98032 254.60048 C 192.14078 254.60621 192.31097 254.62566 192.49035 254.65872 L 192.49035 254.74105 L 192.49035 254.81134 C 192.49035 255.02618 192.42958 255.23476 192.30849 255.43788 C 192.18739 255.6371 192.00574 255.8031 191.76355 255.93591 C 191.52137 256.06482 191.22097 256.12936 190.8616 256.12936 C 190.553 256.12936 190.31631 256.06693 190.15224 255.94193 C 189.99209 255.81693 189.91199 255.63533 189.91199 255.39705 C 189.91199 254.85408 190.37325 254.58241 191.29513 254.58241 z M 219.42022 254.58241 C 219.65851 254.58241 219.88667 254.58876 220.10542 254.60048 C 220.26588 254.60621 220.43607 254.62566 220.61545 254.65872 L 220.61545 254.74105 L 220.61545 254.81134 C 220.61545 255.02618 220.55468 255.23476 220.43358 255.43788 C 220.31249 255.6371 220.13084 255.8031 219.88865 255.93591 C 219.64646 256.06482 219.3454 256.12936 218.98602 256.12936 C 218.67743 256.12936 218.44141 256.06693 218.27734 255.94193 C 218.11719 255.81693 218.03709 255.63533 218.03709 255.39705 C 218.03709 254.85408 218.49835 254.58241 219.42022 254.58241 z "
       transform="matrix(2.910337,0,0,2.9177769,-226.60047,-513.79318)" /><path
       id="text48"
       style="font-size:12px;font-family:'Cascadia Mono';-inkscape-font-specification:'Cascadia Mono, @wght=600';font-variation-settings:'wght' 600;white-space:pre;inline-size:149.517;fill:#ccb5cc;stroke:#000000;stroke-width:0;stroke-linecap:round;stroke-linejoin:round;stroke-opacity:0.13"
       d="M 170.74607 248.19577 C 170.46872 248.19577 170.24056 248.28585 170.06087 248.46554 C 169.88119 248.64523 169.79109 248.87365 169.79109 249.15099 C 169.79109 249.42834 169.88119 249.65676 170.06087 249.83645 C 170.24056 250.01613 170.46872 250.10621 170.74607 250.10621 C 171.02341 250.10621 171.25224 250.01613 171.43193 249.83645 C 171.61162 249.65676 171.70104 249.42834 171.70104 249.15099 C 171.70104 248.87365 171.61162 248.64523 171.43193 248.46554 C 171.25224 248.28585 171.02341 248.19577 170.74607 248.19577 z M 205.90227 248.19577 C 205.62493 248.19577 205.39677 248.28585 205.21708 248.46554 C 205.03739 248.64523 204.9473 248.87365 204.9473 249.15099 C 204.9473 249.42834 205.03739 249.65676 205.21708 249.83645 C 205.39677 250.01613 205.62493 250.10621 205.90227 250.10621 C 206.17962 250.10621 206.40845 250.01613 206.58814 249.83645 C 206.76782 249.65676 206.85725 249.42834 206.85725 249.15099 C 206.85725 248.87365 206.76782 248.64523 206.58814 248.46554 C 206.40845 248.28585 206.17962 248.19577 205.90227 248.19577 z M 234.02737 248.19577 C 233.75003 248.19577 233.5212 248.28585 233.34151 248.46554 C 233.16182 248.64523 233.0724 248.87365 233.0724 249.15099 C 233.0724 249.42834 233.16182 249.65676 233.34151 249.83645 C 233.5212 250.01613 233.75003 250.10621 234.02737 250.10621 C 234.30471 250.10621 234.53288 250.01613 234.71256 249.83645 C 234.89225 249.65676 234.98235 249.42834 234.98235 249.15099 C 234.98235 248.87365 234.89225 248.64523 234.71256 248.46554 C 234.53288 248.28585 234.30471 248.19577 234.02737 248.19577 z M 195.5197 248.42471 L 195.5197 249.70792 L 197.30683 249.70792 L 197.30683 254.72365 C 197.30683 255.6338 197.47276 256.29566 197.80479 256.70972 C 198.14073 257.12378 198.68781 257.33091 199.44563 257.33091 C 199.78938 257.33091 200.11123 257.31107 200.41201 257.27201 C 200.7167 257.23295 201.03136 257.17052 201.35557 257.08458 L 201.19116 255.67284 C 200.67553 255.82128 200.24999 255.89508 199.91405 255.89508 C 199.58593 255.89508 199.33777 255.85249 199.1698 255.76655 C 199.00574 255.68062 198.89486 255.54729 198.83627 255.3676 C 198.77767 255.184 198.74835 254.9499 198.74835 254.66474 L 198.74835 248.42471 L 197.4122 248.42471 L 195.5197 248.42471 z M 126.56022 249.12756 L 126.56022 251.00252 L 125.04286 251.00252 L 125.04286 252.28574 L 126.56022 252.28574 L 126.56022 254.22495 L 126.56022 254.72365 C 126.56022 255.6338 126.78692 256.29566 127.24004 256.70972 C 127.69317 257.12378 128.42977 257.33091 129.4493 257.33091 C 129.73055 257.33091 129.9959 257.31887 130.2459 257.29544 C 130.4998 257.272 130.75796 257.23722 131.01967 257.19034 L 130.87874 255.86562 C 130.60921 255.90078 130.36892 255.93054 130.15798 255.95398 C 129.94705 255.97351 129.74967 255.98277 129.56607 255.98277 C 129.01139 255.98277 128.61157 255.87352 128.36548 255.65477 C 128.12329 255.43602 128.00174 255.0863 128.00174 254.60583 L 128.00174 253.81529 L 128.00174 252.28574 L 130.78546 252.28574 L 130.78546 251.00252 L 128.00174 251.00252 L 128.00174 249.12756 L 126.56022 249.12756 z M 161.7171 249.12756 L 161.7171 251.00252 L 160.19907 251.00252 L 160.19907 252.28574 L 161.7171 252.28574 L 161.7171 254.22495 L 161.7171 254.72365 C 161.7171 255.6338 161.94312 256.29566 162.39625 256.70972 C 162.84937 257.12378 163.58598 257.33091 164.60551 257.33091 C 164.88676 257.33091 165.1521 257.31887 165.4021 257.29544 C 165.65601 257.272 165.91416 257.23722 166.17588 257.19034 L 166.03495 255.86562 C 165.76542 255.90078 165.52513 255.93054 165.31419 255.95398 C 165.10325 255.97351 164.90654 255.98277 164.72295 255.98277 C 164.16826 255.98277 163.76778 255.87352 163.52168 255.65477 C 163.2795 255.43602 163.15795 255.0863 163.15795 254.60583 L 163.15795 253.81529 L 163.15795 252.28574 L 165.94167 252.28574 L 165.94167 251.00252 L 163.15795 251.00252 L 163.15795 249.12756 L 161.7171 249.12756 z M 224.99773 249.12756 L 224.99773 251.00252 L 223.48038 251.00252 L 223.48038 252.28574 L 224.99773 252.28574 L 224.99773 254.22495 L 224.99773 254.72365 C 224.99773 255.6338 225.22443 256.29566 225.67755 256.70972 C 226.13068 257.12378 226.86728 257.33091 227.88681 257.33091 C 228.16806 257.33091 228.43341 257.31887 228.68341 257.29544 C 228.93731 257.272 229.19547 257.23722 229.45719 257.19034 L 229.31625 255.86562 C 229.04672 255.90078 228.80643 255.93054 228.59549 255.95398 C 228.38456 255.97351 228.18718 255.98277 228.00358 255.98277 C 227.4489 255.98277 227.04908 255.87352 226.80299 255.65477 C 226.5608 255.43602 226.43925 255.0863 226.43925 254.60583 L 226.43925 253.81529 L 226.43925 252.28574 L 229.22297 252.28574 L 229.22297 251.00252 L 226.43925 251.00252 L 226.43925 249.12756 L 224.99773 249.12756 z M 121.7028 250.88538 C 121.21843 250.88538 120.85366 250.98894 120.60757 251.19597 C 120.36538 251.3991 120.22091 251.70979 120.17404 252.12776 L 120.0123 252.12776 L 119.88681 251.00252 L 118.58622 251.00252 L 118.58622 257.21377 L 120.03311 257.21377 L 120.03311 253.95586 C 120.03311 252.80742 120.46651 252.23285 121.3337 252.23285 C 121.6462 252.23285 121.88862 252.33497 122.0605 252.5381 C 122.23237 252.74122 122.3182 253.02995 122.3182 253.40495 L 122.3182 257.21377 L 123.76576 257.21377 L 123.76576 253.17067 C 123.76576 252.4441 123.58625 251.88158 123.22687 251.48314 C 122.8675 251.0847 122.35905 250.88538 121.7028 250.88538 z M 135.29122 250.88538 C 134.39278 250.88538 133.6955 251.16697 133.19941 251.72947 C 132.70722 252.29197 132.4612 253.08081 132.4612 254.09643 C 132.4612 255.1394 132.75226 255.94027 133.3343 256.49886 C 133.91633 257.05355 134.74022 257.33091 135.80663 257.33091 C 136.05272 257.33091 136.33593 257.32099 136.65624 257.30146 C 136.97655 257.28193 137.32839 257.23723 137.71121 257.16691 L 137.55887 255.83082 C 137.28543 255.8816 137.01582 255.92273 136.75019 255.95398 C 136.48847 255.98133 136.22099 255.99482 135.94756 255.99482 C 135.27959 255.99482 134.76395 255.82882 134.40067 255.49679 C 134.17712 255.29007 134.02226 255.02619 133.93627 254.70557 L 137.98032 254.70557 C 138.00375 254.45557 138.01588 254.18813 138.01588 253.90298 C 138.01588 252.92251 137.77706 252.17481 137.30049 251.65919 C 136.82784 251.14356 136.15841 250.88538 135.29122 250.88538 z M 143.73432 250.88538 C 142.71088 250.88538 142.16593 251.41669 142.09952 252.47919 L 141.90692 252.47919 L 141.71297 251.00252 L 141.6311 251.00252 L 139.39835 251.00252 L 139.39835 252.2275 L 140.50566 252.2275 L 140.50566 255.98879 L 139.16414 255.98879 L 139.16414 257.21377 L 143.42964 257.21377 L 143.42964 255.98879 L 141.94718 255.98879 L 141.94718 254.54157 C 141.94718 253.79548 142.0566 253.21946 142.27535 252.81321 C 142.4941 252.40696 142.82595 252.20407 143.27126 252.20407 C 143.57204 252.20407 143.78875 252.29136 143.92156 252.46714 C 144.05828 252.64292 144.12691 252.93232 144.12691 253.33467 L 145.5624 253.33467 C 145.5624 252.51435 145.41006 251.90077 145.10538 251.49452 C 144.80069 251.08827 144.3437 250.88538 143.73432 250.88538 z M 149.8279 250.88538 C 149.34353 250.88538 148.97876 250.98894 148.73267 251.19597 C 148.49048 251.3991 148.34601 251.70979 148.29914 252.12776 L 148.1374 252.12776 L 148.01191 251.00252 L 146.71065 251.00252 L 146.71065 257.21377 L 148.15821 257.21377 L 148.15821 253.95586 C 148.15821 252.80742 148.59161 252.23285 149.4588 252.23285 C 149.7713 252.23285 150.01372 252.33497 150.1856 252.5381 C 150.35747 252.74122 150.4433 253.02995 150.4433 253.40495 L 150.4433 257.21377 L 151.89086 257.21377 L 151.89086 253.17067 C 151.89086 252.4441 151.71067 251.88158 151.3513 251.48314 C 150.99192 251.0847 150.48415 250.88538 149.8279 250.88538 z M 177.42552 250.88538 C 176.54661 250.88538 175.86359 251.16697 175.37531 251.72947 C 174.89093 252.28807 174.64851 253.08047 174.64851 254.10781 C 174.64851 255.13125 174.89093 255.92432 175.37531 256.48682 C 175.86359 257.04932 176.54661 257.33091 177.42552 257.33091 C 178.30833 257.33091 178.99202 257.04932 179.4764 256.48682 C 179.96077 255.92432 180.2032 255.13125 180.2032 254.10781 C 180.2032 253.08047 179.96077 252.28807 179.4764 251.72947 C 178.99202 251.16697 178.30833 250.88538 177.42552 250.88538 z M 184.98411 250.88538 C 184.49973 250.88538 184.13497 250.98894 183.88887 251.19597 C 183.64669 251.3991 183.50222 251.70979 183.45534 252.12776 L 183.29361 252.12776 L 183.16811 251.00252 L 181.86685 251.00252 L 181.86685 257.21377 L 183.31441 257.21377 L 183.31441 253.95586 C 183.31441 252.80742 183.74782 252.23285 184.615 252.23285 C 184.9275 252.23285 185.16993 252.33497 185.3418 252.5381 C 185.51368 252.74122 185.59951 253.02995 185.59951 253.40495 L 185.59951 257.21377 L 187.04707 257.21377 L 187.04707 253.17067 C 187.04707 252.4441 186.86688 251.88158 186.5075 251.48314 C 186.14813 251.0847 185.64036 250.88538 184.98411 250.88538 z M 240.70682 250.88538 C 239.82792 250.88538 239.14422 251.16697 238.65594 251.72947 C 238.17157 252.28807 237.92981 253.08047 237.92981 254.10781 C 237.92981 255.13125 238.17157 255.92432 238.65594 256.48682 C 239.14422 257.04932 239.82792 257.33091 240.70682 257.33091 C 241.58963 257.33091 242.27333 257.04932 242.7577 256.48682 C 243.24208 255.92432 243.4845 255.13125 243.4845 254.10781 C 243.4845 253.08047 243.24208 252.28807 242.7577 251.72947 C 242.27333 251.16697 241.58963 250.88538 240.70682 250.88538 z M 154.19944 250.94428 L 154.082 252.25093 L 155.62888 252.29176 C 156.19529 252.30739 156.62083 252.40103 156.90599 252.5729 C 157.19114 252.74087 157.33415 253.00686 157.33415 253.37014 L 157.33415 253.49532 C 157.23436 253.47362 157.1328 253.45563 157.02947 253.44043 C 156.76384 253.40137 156.45491 253.38152 156.10335 253.38152 C 155.21663 253.38152 154.53148 253.56312 154.0471 253.92641 C 153.56273 254.28969 153.3203 254.81108 153.3203 255.49077 C 153.3203 256.0767 153.49982 256.52998 153.8592 256.85029 C 154.22248 257.17061 154.73238 257.33091 155.38863 257.33091 C 155.78316 257.33091 156.12287 257.27205 156.40803 257.15486 C 156.69319 257.03377 156.91416 256.85429 157.07041 256.61601 C 157.20187 256.41721 157.28184 256.17886 157.31066 255.9011 L 157.44421 255.9011 L 157.52742 257.27201 L 159.66018 257.21377 L 159.66018 256.04167 L 158.72265 255.91248 L 158.72265 253.49867 C 158.72265 252.67835 158.45877 252.05552 157.93143 251.62974 C 157.40408 251.20005 156.59738 250.97731 155.51144 250.96169 L 154.19944 250.94428 z M 189.35565 250.94428 L 189.23821 252.25093 L 190.78509 252.29176 C 191.3515 252.30739 191.77704 252.40103 192.06219 252.5729 C 192.34735 252.74087 192.49035 253.00686 192.49035 253.37014 L 192.49035 253.49532 C 192.39056 253.47362 192.28901 253.45563 192.18567 253.44043 C 191.92005 253.40137 191.61112 253.38152 191.25956 253.38152 C 190.37284 253.38152 189.68768 253.56312 189.20331 253.92641 C 188.71893 254.28969 188.47651 254.81108 188.47651 255.49077 C 188.47651 256.0767 188.65603 256.52998 189.0154 256.85029 C 189.37868 257.17061 189.88859 257.33091 190.54484 257.33091 C 190.93937 257.33091 191.27908 257.27205 191.56424 257.15486 C 191.84939 257.03377 192.07036 256.85429 192.22661 256.61601 C 192.35808 256.41721 192.43805 256.17886 192.46687 255.9011 L 192.60041 255.9011 L 192.68363 257.27201 L 194.81638 257.21377 L 194.81638 256.04167 L 193.87886 255.91248 L 193.87886 253.49867 C 193.87886 252.67835 193.61498 252.05552 193.08763 251.62974 C 192.56029 251.20005 191.75359 250.97731 190.66765 250.96169 L 189.35565 250.94428 z M 217.48075 250.94428 L 217.36331 252.25093 L 218.91019 252.29176 C 219.4766 252.30739 219.90213 252.40103 220.18729 252.5729 C 220.47245 252.74087 220.61545 253.00686 220.61545 253.37014 L 220.61545 253.49532 C 220.51566 253.47362 220.41411 253.45563 220.31077 253.44043 C 220.04515 253.40137 219.73622 253.38152 219.38466 253.38152 C 218.49794 253.38152 217.81278 253.56312 217.32841 253.92641 C 216.84403 254.28969 216.60161 254.81108 216.60161 255.49077 C 216.60161 256.0767 216.78113 256.52998 217.1405 256.85029 C 217.50378 257.17061 218.01369 257.33091 218.66994 257.33091 C 219.06447 257.33091 219.40418 257.27205 219.68934 257.15486 C 219.97449 257.03377 220.19546 256.85429 220.35171 256.61601 C 220.48318 256.41721 220.56315 256.17886 220.59196 255.9011 L 220.72551 255.9011 L 220.80873 257.27201 L 222.94148 257.21377 L 222.94148 256.04167 L 222.00396 255.91248 L 222.00396 253.49867 C 222.00396 252.67835 221.74007 252.05552 221.21273 251.62974 C 220.68539 251.20005 219.87868 250.97731 218.79275 250.96169 L 217.48075 250.94428 z M 168.10932 251.00252 L 168.10932 252.29176 L 170.08369 252.29176 L 170.08369 255.92453 L 167.75766 255.92453 L 167.75766 257.21377 L 170.20113 257.21377 L 171.52521 257.21377 L 173.39422 257.21377 L 173.39422 255.92453 L 171.52521 255.92453 L 171.52521 251.35395 L 171.52521 251.00252 L 168.10932 251.00252 z M 203.26552 251.00252 L 203.26552 252.29176 L 205.24057 252.29176 L 205.24057 255.92453 L 202.91387 255.92453 L 202.91387 257.21377 L 205.35734 257.21377 L 206.68142 257.21377 L 208.5511 257.21377 L 208.5511 255.92453 L 206.68142 255.92453 L 206.68142 251.35395 L 206.68142 251.00252 L 203.26552 251.00252 z M 210.00403 251.00252 L 210.00403 252.23285 L 213.36825 252.23285 L 210.00403 255.98277 L 210.00403 257.21377 L 215.1366 257.21377 L 215.1366 255.98277 L 211.71265 255.98277 L 215.01983 252.23285 L 215.01983 251.00252 L 210.00403 251.00252 z M 231.39062 251.00252 L 231.39062 252.29176 L 233.365 252.29176 L 233.365 255.92453 L 231.03897 255.92453 L 231.03897 257.21377 L 233.48244 257.21377 L 234.80652 257.21377 L 236.67553 257.21377 L 236.67553 255.92453 L 234.80652 255.92453 L 234.80652 251.35395 L 234.80652 251.00252 L 231.39062 251.00252 z M 135.30263 252.19202 C 135.7206 252.19202 136.04672 252.319 136.28109 252.5729 C 136.51547 252.82681 136.63275 253.19001 136.63275 253.66267 L 133.87453 253.66267 C 133.91857 253.25129 134.03905 252.92142 134.23625 252.67264 C 134.49016 252.35233 134.8456 252.19202 135.30263 252.19202 z M 177.42552 252.23285 C 177.82786 252.23285 178.13679 252.39528 178.35163 252.7195 C 178.57038 253.04372 178.6798 253.50625 178.6798 254.10781 C 178.6798 254.70547 178.57038 255.16867 178.35163 255.49679 C 178.13679 255.82101 177.82786 255.98277 177.42552 255.98277 C 177.02708 255.98277 176.71882 255.82101 176.50007 255.49679 C 176.28132 255.16867 176.1719 254.70547 176.1719 254.10781 C 176.1719 253.50625 176.28132 253.04372 176.50007 252.7195 C 176.71882 252.39528 177.02708 252.23285 177.42552 252.23285 z M 240.70682 252.23285 C 241.10917 252.23285 241.4181 252.39528 241.63294 252.7195 C 241.85169 253.04372 241.96111 253.50625 241.96111 254.10781 C 241.96111 254.70547 241.85169 255.16867 241.63294 255.49679 C 241.4181 255.82101 241.10917 255.98277 240.70682 255.98277 C 240.30838 255.98277 240.00013 255.82101 239.78138 255.49679 C 239.56263 255.16867 239.45321 254.70547 239.45321 254.10781 C 239.45321 253.50625 239.56263 253.04372 239.78138 252.7195 C 240.00013 252.39528 240.30838 252.23285 240.70682 252.23285 z M 156.13892 254.58241 C 156.3772 254.58241 156.60536 254.58876 156.82411 254.60048 C 156.98458 254.60621 157.15477 254.62566 157.33415 254.65872 L 157.33415 254.74105 L 157.33415 254.81134 C 157.33415 255.02618 157.27337 255.23476 157.15228 255.43788 C 157.03119 255.6371 156.84953 255.8031 156.60735 255.93591 C 156.36516 256.06482 156.06476 256.12936 155.70539 256.12936 C 155.3968 256.12936 155.1601 256.06693 154.99604 255.94193 C 154.83588 255.81693 154.75578 255.63533 154.75578 255.39705 C 154.75578 254.85408 155.21705 254.58241 156.13892 254.58241 z M 191.29513 254.58241 C 191.53341 254.58241 191.76157 254.58876 191.98032 254.60048 C 192.14078 254.60621 192.31097 254.62566 192.49035 254.65872 L 192.49035 254.74105 L 192.49035 254.81134 C 192.49035 255.02618 192.42958 255.23476 192.30849 255.43788 C 192.18739 255.6371 192.00574 255.8031 191.76355 255.93591 C 191.52137 256.06482 191.22097 256.12936 190.8616 256.12936 C 190.553 256.12936 190.31631 256.06693 190.15224 255.94193 C 189.99209 255.81693 189.91199 255.63533 189.91199 255.39705 C 189.91199 254.85408 190.37325 254.58241 191.29513 254.58241 z M 219.42022 254.58241 C 219.65851 254.58241 219.88667 254.58876 220.10542 254.60048 C 220.26588 254.60621 220.43607 254.62566 220.61545 254.65872 L 220.61545 254.74105 L 220.61545 254.81134 C 220.61545 255.02618 220.55468 255.23476 220.43358 255.43788 C 220.31249 255.6371 220.13084 255.8031 219.88865 255.93591 C 219.64646 256.06482 219.3454 256.12936 218.98602 256.12936 C 218.67743 256.12936 218.44141 256.06693 218.27734 255.94193 C 218.11719 255.81693 218.03709 255.63533 218.03709 255.39705 C 218.03709 254.85408 218.49835 254.58241 219.42022 254.58241 z "
       transform="matrix(2.910337,0,0,2.9177769,-226.60047,-513.79318)" /></g><g
     id="g30"
     transform="translate(163.97824,39.273467)"><path
       id="text98"
       style="font-size:12px;font-family:'Cascadia Mono';-inkscape-font-specification:'Cascadia Mono, @wght=600';font-variation-settings:'wght' 600;white-space:pre;inline-size:149.517;fill:#ffffff;stroke:#000000;stroke-width:3.77481;stroke-linecap:round;stroke-linejoin:round;stroke-opacity:0.13"
       d="M 128.20729 248.77606 C 127.36354 248.77606 126.70917 248.9619 126.24433 249.333 C 125.77949 249.70018 125.54706 250.21734 125.54706 250.88531 C 125.54706 251.5064 125.77949 251.98877 126.24433 252.33252 C 126.51172 252.52801 126.84143 252.66718 127.2342 252.75022 L 127.2342 252.82252 C 126.76658 252.91319 126.37822 253.07588 126.0685 253.31117 C 125.56459 253.69008 125.31217 254.22919 125.31217 254.92841 C 125.31217 255.69013 125.56459 256.28175 126.0685 256.70363 C 126.57241 257.1216 127.28542 257.33084 128.20729 257.33084 C 129.12917 257.33084 129.84151 257.1216 130.34542 256.70363 C 130.84932 256.28175 131.10175 255.69013 131.10175 254.92841 C 131.10175 254.22919 130.84932 253.69008 130.34542 253.31117 C 130.03829 253.07785 129.65353 252.91564 129.19113 252.82452 L 129.19113 252.74888 C 129.58032 252.66563 129.90644 252.52654 130.16959 252.33252 C 130.63443 251.98877 130.86686 251.5064 130.86686 250.88531 C 130.86686 250.21734 130.63443 249.70018 130.16959 249.333 C 129.70865 248.9619 129.05495 248.77606 128.20729 248.77606 z M 111.55464 248.89321 L 111.55464 250.1704 L 113.4411 250.1704 L 113.4411 255.93048 L 111.55464 255.93048 L 111.55464 257.2137 L 116.73418 257.2137 L 116.73418 255.93048 L 114.83564 255.93048 L 114.83564 250.1704 L 116.73418 250.1704 L 116.73418 248.89321 L 111.55464 248.89321 z M 120.64266 248.89321 L 118.7146 249.59607 L 118.7146 250.95559 L 120.64266 250.27616 L 120.64266 255.94789 L 118.59782 255.94789 L 118.59782 257.2137 L 120.75943 257.2137 L 122.0607 257.2137 L 123.88273 257.2137 L 123.88273 255.94789 L 122.0607 255.94789 L 122.0607 248.89321 L 120.64266 248.89321 z M 128.20729 250.08873 C 128.5862 250.08873 128.87873 250.18238 129.08576 250.36988 C 129.29279 250.55347 129.39648 250.81734 129.39648 251.16109 C 129.39648 251.47359 129.29279 251.71762 129.08576 251.8934 C 128.87873 252.06919 128.5862 252.15714 128.20729 252.15714 C 127.82839 252.15714 127.53519 252.06919 127.32815 251.8934 C 127.12112 251.71762 127.01744 251.47359 127.01744 251.16109 C 127.01744 250.81734 127.12112 250.55347 127.32815 250.36988 C 127.53519 250.18238 127.82839 250.08873 128.20729 250.08873 z M 135.76589 250.88531 C 135.28151 250.88531 134.91607 250.98887 134.66998 251.1959 C 134.42779 251.39903 134.28332 251.70972 134.23645 252.12769 L 134.07471 252.12769 L 133.94922 251.00245 L 132.64863 251.00245 L 132.64863 257.2137 L 134.09552 257.2137 L 134.09552 253.95579 C 134.09552 252.80735 134.52959 252.23278 135.39678 252.23278 C 135.70928 252.23278 135.95103 252.3349 136.12291 252.53803 C 136.29478 252.74115 136.38061 253.02988 136.38061 253.40488 L 136.38061 257.2137 L 137.82817 257.2137 L 137.82817 253.1706 C 137.82817 252.44403 137.64866 251.88151 137.28928 251.48307 C 136.92991 251.08463 136.42214 250.88531 135.76589 250.88531 z M 128.20729 253.48119 C 128.66433 253.48119 129.0155 253.59468 129.26159 253.82124 C 129.50768 254.0478 129.6307 254.36418 129.6307 254.77043 C 129.6307 255.16497 129.50768 255.47142 129.26159 255.69017 C 129.0155 255.90502 128.66433 256.01215 128.20729 256.01215 C 127.75417 256.01215 127.40233 255.90502 127.15233 255.69017 C 126.90623 255.47142 126.78322 255.16497 126.78322 254.77043 C 126.78322 254.36418 126.90623 254.0478 127.15233 253.82124 C 127.40233 253.59468 127.75417 253.48119 128.20729 253.48119 z "
       transform="matrix(2.910337,0,0,2.9177769,-226.87225,-513.82035)" /><path
       id="text94"
       style="font-size:12px;font-family:'Cascadia Mono';-inkscape-font-specification:'Cascadia Mono, @wght=600';font-variation-settings:'wght' 600;white-space:pre;inline-size:149.517;fill:#ffffff;stroke:#000000;stroke-width:0;stroke-linecap:round;stroke-linejoin:round;stroke-opacity:0.13"
       d="M 128.20719 248.77612 C 127.36344 248.77612 126.70907 248.96129 126.24423 249.33239 C 125.77938 249.69957 125.54696 250.2174 125.54696 250.88537 C 125.54696 251.50646 125.77938 251.98883 126.24423 252.33258 C 126.51162 252.52807 126.84133 252.66724 127.2341 252.75028 L 127.2341 252.82258 C 126.76648 252.91325 126.37812 253.07594 126.0684 253.31123 C 125.56449 253.69013 125.31274 254.22925 125.31274 254.92847 C 125.31274 255.69019 125.56449 256.28181 126.0684 256.70369 C 126.57231 257.12166 127.28532 257.3309 128.20719 257.3309 C 129.12907 257.3309 129.84208 257.12166 130.34599 256.70369 C 130.84989 256.28181 131.10164 255.69019 131.10164 254.92847 C 131.10164 254.22925 130.84989 253.69013 130.34599 253.31123 C 130.03886 253.0779 129.6541 252.9157 129.1917 252.82458 L 129.1917 252.74894 C 129.58089 252.66569 129.90701 252.5266 130.17016 252.33258 C 130.635 251.98883 130.86743 251.50646 130.86743 250.88537 C 130.86743 250.2174 130.635 249.69957 130.17016 249.33239 C 129.70922 248.96129 129.05485 248.77612 128.20719 248.77612 z M 111.55454 248.89327 L 111.55454 250.17046 L 113.44167 250.17046 L 113.44167 255.93054 L 111.55454 255.93054 L 111.55454 257.21376 L 116.73408 257.21376 L 116.73408 255.93054 L 114.83621 255.93054 L 114.83621 250.17046 L 116.73408 250.17046 L 116.73408 248.89327 L 111.55454 248.89327 z M 120.64256 248.89327 L 118.71516 249.59612 L 118.71516 250.95565 L 120.64256 250.27622 L 120.64256 255.94795 L 118.59772 255.94795 L 118.59772 257.21376 L 120.76 257.21376 L 122.06059 257.21376 L 123.88263 257.21376 L 123.88263 255.94795 L 122.06059 255.94795 L 122.06059 248.89327 L 120.64256 248.89327 z M 128.20719 250.08879 C 128.5861 250.08879 128.87863 250.18244 129.08566 250.36994 C 129.29269 250.55353 129.39638 250.8174 129.39638 251.16115 C 129.39638 251.47365 129.29269 251.71768 129.08566 251.89346 C 128.87863 252.06925 128.5861 252.1572 128.20719 252.1572 C 127.82829 252.1572 127.53508 252.06925 127.32805 251.89346 C 127.12102 251.71768 127.01733 251.47365 127.01733 251.16115 C 127.01733 250.8174 127.12102 250.55353 127.32805 250.36994 C 127.53508 250.18244 127.82829 250.08879 128.20719 250.08879 z M 135.76578 250.88537 C 135.28141 250.88537 134.91597 250.98893 134.66988 251.19596 C 134.42769 251.39909 134.28322 251.70978 134.23635 252.12775 L 134.07461 252.12775 L 133.94912 251.00251 L 132.64853 251.00251 L 132.64853 257.21376 L 134.09542 257.21376 L 134.09542 253.95585 C 134.09542 252.80741 134.52949 252.23284 135.39668 252.23284 C 135.70918 252.23284 135.95093 252.33496 136.12281 252.53809 C 136.29468 252.74121 136.38118 253.02994 136.38118 253.40494 L 136.38118 257.21376 L 137.82807 257.21376 L 137.82807 253.17066 C 137.82807 252.44409 137.64855 251.88157 137.28918 251.48313 C 136.9298 251.08469 136.42203 250.88537 135.76578 250.88537 z M 128.20719 253.48125 C 128.66422 253.48125 129.0154 253.59474 129.26149 253.8213 C 129.50758 254.04786 129.63059 254.36424 129.63059 254.77049 C 129.63059 255.16503 129.50758 255.47148 129.26149 255.69023 C 129.0154 255.90508 128.66422 256.01221 128.20719 256.01221 C 127.75407 256.01221 127.40222 255.90508 127.15222 255.69023 C 126.90613 255.47148 126.78312 255.16503 126.78312 254.77049 C 126.78312 254.36424 126.90613 254.04786 127.15222 253.8213 C 127.40222 253.59474 127.75407 253.48125 128.20719 253.48125 z "
       transform="matrix(2.910337,0,0,2.9177769,-226.60047,-513.79318)" /><path
       id="text90"
       style="font-size:12px;font-family:'Cascadia Mono';-inkscape-font-specification:'Cascadia Mono, @wght=600';font-variation-settings:'wght' 600;white-space:pre;inline-size:149.517;fill:#ccb5cc;stroke:#000000;stroke-width:0;stroke-linecap:round;stroke-linejoin:round;stroke-opacity:0.13"
       d="M 128.20719 248.77612 C 127.36344 248.77612 126.70907 248.96129 126.24423 249.33239 C 125.77938 249.69957 125.54696 250.2174 125.54696 250.88537 C 125.54696 251.50646 125.77938 251.98883 126.24423 252.33258 C 126.51162 252.52807 126.84133 252.66724 127.2341 252.75028 L 127.2341 252.82258 C 126.76648 252.91325 126.37812 253.07594 126.0684 253.31123 C 125.56449 253.69013 125.31274 254.22925 125.31274 254.92847 C 125.31274 255.69019 125.56449 256.28181 126.0684 256.70369 C 126.57231 257.12166 127.28532 257.3309 128.20719 257.3309 C 129.12907 257.3309 129.84208 257.12166 130.34599 256.70369 C 130.84989 256.28181 131.10164 255.69019 131.10164 254.92847 C 131.10164 254.22925 130.84989 253.69013 130.34599 253.31123 C 130.03886 253.0779 129.6541 252.9157 129.1917 252.82458 L 129.1917 252.74894 C 129.58089 252.66569 129.90701 252.5266 130.17016 252.33258 C 130.635 251.98883 130.86743 251.50646 130.86743 250.88537 C 130.86743 250.2174 130.635 249.69957 130.17016 249.33239 C 129.70922 248.96129 129.05485 248.77612 128.20719 248.77612 z M 120.64256 248.89327 L 118.71516 249.59612 L 118.71516 250.95565 L 120.64256 250.27622 L 120.64256 255.94795 L 118.59772 255.94795 L 118.59772 257.21376 L 120.76 257.21376 L 122.06059 257.21376 L 123.88263 257.21376 L 123.88263 255.94795 L 122.06059 255.94795 L 122.06059 248.89327 L 120.64256 248.89327 z M 128.20719 250.08879 C 128.5861 250.08879 128.87863 250.18244 129.08566 250.36994 C 129.29269 250.55353 129.39638 250.8174 129.39638 251.16115 C 129.39638 251.47365 129.29269 251.71768 129.08566 251.89346 C 128.87863 252.06925 128.5861 252.1572 128.20719 252.1572 C 127.82829 252.1572 127.53508 252.06925 127.32805 251.89346 C 127.12102 251.71768 127.01733 251.47365 127.01733 251.16115 C 127.01733 250.8174 127.12102 250.55353 127.32805 250.36994 C 127.53508 250.18244 127.82829 250.08879 128.20719 250.08879 z M 128.20719 253.48125 C 128.66422 253.48125 129.0154 253.59474 129.26149 253.8213 C 129.50758 254.04786 129.63059 254.36424 129.63059 254.77049 C 129.63059 255.16503 129.50758 255.47148 129.26149 255.69023 C 129.0154 255.90508 128.66422 256.01221 128.20719 256.01221 C 127.75407 256.01221 127.40222 255.90508 127.15222 255.69023 C 126.90613 255.47148 126.78312 255.16503 126.78312 254.77049 C 126.78312 254.36424 126.90613 254.04786 127.15222 253.8213 C 127.40222 253.59474 127.75407 253.48125 128.20719 253.48125 z "
       transform="matrix(2.910337,0,0,2.9177769,-226.60047,-513.79318)" /></g></svg>
